<svg xmlns="http://www.w3.org/2000/svg" width="780" height="1680" viewBox="0 0 780 1680">
  <defs>
    <linearGradient id="bg" x1="0" x2="1" y1="0" y2="1">
      <stop offset="0%" stop-color="#0e1b2a"/>
      <stop offset="100%" stop-color="#0b4fb3"/>
    </linearGradient>
  </defs>
  <rect width="780" height="1680" rx="90" ry="90" fill="#0f1f33"/>
  <rect x="36" y="60" width="708" height="1560" rx="70" ry="70" fill="url(#bg)"/>
  <rect x="80" y="140" width="620" height="90" rx="28" fill="#10263f"/>
  <rect x="110" y="165" width="180" height="36" rx="18" fill="#1e3a8a"/>
  <rect x="320" y="165" width="170" height="36" rx="18" fill="#0b4fb3"/>
  <rect x="520" y="165" width="150" height="36" rx="18" fill="#1e3a8a"/>
  <rect x="80" y="270" width="620" height="120" rx="32" fill="#0f2238"/>
  <rect x="80" y="430" width="620" height="120" rx="32" fill="#0f2238"/>
  <rect x="80" y="590" width="620" height="120" rx="32" fill="#0f2238"/>
  <rect x="80" y="760" width="620" height="260" rx="36" fill="#0f2238"/>
  <rect x="120" y="820" width="260" height="40" rx="20" fill="#1677ff"/>
  <rect x="120" y="900" width="520" height="40" rx="20" fill="#1f2f49"/>
  <rect x="120" y="980" width="420" height="40" rx="20" fill="#1f2f49"/>
  <circle cx="160" cy="1210" r="50" fill="#1677ff"/>
  <rect x="230" y="1175" width="430" height="70" rx="28" fill="#0f2238"/>
  <rect x="80" y="1330" width="620" height="120" rx="32" fill="#0f2238"/>
</svg>
